<svg id="Flat" height="512" viewBox="0 0 512 512" width="512" xmlns="http://www.w3.org/2000/svg"><path d="m224 168-8 40-40 8-96-64 80-80z" fill="#c48669"/><path d="m400 40-64 216h-32l64-216z" fill="#734b39"/><circle cx="128" cy="264" fill="#f7cca9" r="64"/><circle cx="384" cy="264" fill="#734b39" r="64"/><circle cx="256" cy="184" fill="#f7cca9" r="64"/><path d="m232 408h48v48h-48z" fill="#86afcc"/><path d="m352 456h-192a32 32 0 0 0 -32 32h256a32 32 0 0 0 -32-32z" fill="#a3d4f7"/><circle cx="192" cy="264" fill="#ff9494" r="64"/><circle cx="320" cy="264" fill="#ffb632" r="64"/><circle cx="256" cy="64" fill="#eb423f" r="24"/><path d="m256 48a8 8 0 0 1 -8-8 8.009 8.009 0 0 0 -8-8h-8a8 8 0 0 1 0-16h8a24.028 24.028 0 0 1 24 24 8 8 0 0 1 -8 8z" fill="#cfdb8c"/><path d="m280 88h8a16 16 0 0 1 16 16v16a16 16 0 0 1 16 16 16 16 0 0 1 -16 16h-16v15.551c0 8.618-6.626 16.03-15.234 16.431a16 16 0 0 1 -16.766-15.982 16 16 0 0 0 -16-16 16 16 0 0 0 -16 16v15.551c0 8.618-6.626 16.03-15.234 16.431a16 16 0 0 1 -16.766-15.982v-48a16 16 0 0 1 16-16v-16a16 16 0 0 1 16-16z" fill="#e1e3e6"/><path d="m240 128h-32a8 8 0 0 1 0-16h32a8 8 0 0 1 0 16z" fill="#e9eef2"/><path d="m64 264h384a0 0 0 0 1 0 0v80a64 64 0 0 1 -64 64h-256a64 64 0 0 1 -64-64v-80a0 0 0 0 1 0 0z" fill="#8fbad9"/><path d="m480 296c-37.335 0-37.335 32-74.671 32s-37.335-32-74.671-32-37.333 32-74.667 32-37.332-32-74.665-32-37.326 32-74.661 32-37.333-32-74.665-32v-16a16 16 0 0 1 16-16h416a16 16 0 0 1 16 16z" fill="#a3d4f7"/></svg>